<?xml version="1.0" encoding="utf-8"?>
<!DOCTYPE svg PUBLIC "-//W3C//DTD SVG 1.0//EN" "http://www.w3.org/TR/2001/REC-SVG-20010904/DTD/svg10.dtd">
<svg version="1.0" xmlns="http://www.w3.org/2000/svg" width="100px" height="100px" viewBox="0 0 512 512" preserveAspectRatio="xMidYMid meet">
 <circle cx="256" cy="256" r="256" fill="#000000"/>
 <g fill="#FFFFFF">
  <path d="M9 405.8 c-4.4 -3 -6.9 -6.6 -8 -11.4 -1.3 -5.4 -1.2 -44.8 0.1 -50.4 0.5 -2.4 2 -5.8 3.3 -7.5 2.2 -2.8 2.4 -4.2 2.8 -20.5 0.3 -9.6 0.9 -18.3 1.3 -19.3 1 -2.4 5.9 -4.8 8.2 -4 5.1 1.8 5.2 2.3 4.6 20.2 l-0.6 16.8 38.4 0.6 c21.1 0.4 83.8 0.7 139.2 0.7 110.3 0 112.2 -0.1 147.9 -6.1 16.6 -2.8 18.2 -2.9 20.4 -1.4 6.3 4.1 3.2 11.3 -5.7 13.1 l-5.4 1 0.3 4 c0.6 7.7 5.3 43.8 5.8 44.3 0.6 0.7 35.8 -5.5 51.6 -9 34.2 -7.7 64.5 -18.8 79.7 -29.2 l4.4 -3 -0.6 -8 c-0.7 -9.8 -5.4 -20.4 -11.7 -26.1 -4.2 -3.8 -6.9 -4.4 -11.7 -2.5 -11.3 4.3 -70 19.9 -75 19.9 -5.6 0 -8.6 -6.8 -4.9 -10.9 1 -1.1 5.5 -2.8 10.9 -4.1 5.1 -1.3 9.6 -2.5 10 -2.7 2.5 -1.4 -10.5 -9.5 -23.8 -14.9 -7.5 -3 -35.5 -10.9 -36 -10.1 -0.1 0.1 -2.8 4.5 -5.9 9.7 -3.2 5.2 -6.5 10.1 -7.4 10.7 -3.9 3.1 -11.2 -0.2 -11.2 -5 0 -1.1 2 -5.3 4.5 -9.4 2.5 -4 4.5 -7.8 4.5 -8.3 0 -0.6 -1 -1 -2.2 -1 -1.2 0 -5.7 -1 -10 -2.1 l-7.9 -2.2 -9.3 9.2 c-5.5 5.3 -10.2 9.1 -11.3 9.1 -1.1 0 -3.2 -0.9 -4.7 -2.1 -4.3 -3.4 -3.5 -6.5 3.9 -14.6 l6.4 -7.1 -9.7 -4.9 -9.7 -5 -9.2 8.3 c-10.2 9.3 -13.2 10.3 -17.1 6.1 -3.9 -4.1 -2.9 -6.4 6 -14.8 4.6 -4.3 8.1 -7.9 7.8 -8.1 -0.3 -0.2 -3.2 -2.4 -6.5 -4.9 -3.3 -2.5 -6.6 -4.9 -7.3 -5.3 -0.7 -0.4 -4.9 1.8 -10.6 5.8 -5.7 4 -10.5 6.6 -12 6.6 -3.8 0 -6.8 -3.4 -6.4 -7.3 0.3 -3.1 3.6 -6.2 14.9 -13.9 l2.4 -1.6 -6.7 -6.8 -6.7 -6.8 -9.8 6.7 c-5.4 3.7 -10.6 6.7 -11.6 6.7 -2.6 0 -5.5 -1.7 -6.7 -4 -2 -3.8 -0.1 -6.8 8.4 -12.6 4.4 -3.1 8.5 -6 9 -6.5 0.5 -0.4 -1.9 -4.2 -5.3 -8.3 l-6.2 -7.6 -9.4 6.5 c-5.2 3.7 -10.3 6.5 -11.7 6.5 -3.1 0 -6.8 -3.9 -6.8 -7.2 0 -2.9 2 -4.8 12.3 -11.8 3.7 -2.5 6.7 -4.8 6.7 -5.2 0 -0.5 -7.1 -11.4 -9.7 -14.7 -0.1 -0.2 -4.8 1.5 -10.2 3.8 -11.1 4.7 -14.4 4.9 -17.4 1 -1.5 -2.2 -1.7 -3.3 -1 -5.5 0.8 -2.4 2.6 -3.6 10.2 -7 5.1 -2.3 9.4 -4.4 9.7 -4.7 0.2 -0.2 -1.9 -4.4 -4.7 -9.2 -5 -8.5 -5.2 -8.7 -8.3 -8.1 -8.2 1.7 -41.8 6.8 -56.6 8.5 -23.2 2.8 -52.6 4.5 -65.2 3.8 -6 -0.3 -10.8 -0.2 -10.8 0.3 0 0.5 1.1 5.5 2.5 11.2 4.6 19.3 5.6 35.9 3.1 49.8 -0.8 4.1 -3.3 13.3 -5.5 20.4 -2.3 7 -5.3 17.6 -6.8 23.4 -2.8 11.2 -5.3 15.2 -9.3 15.2 -2.6 0 -7 -4.3 -7 -6.8 0 -2.1 6 -24 11.4 -41.6 6.2 -20.1 5.9 -35.3 -1 -62.4 -3.8 -15 -3.5 -17.6 2.2 -22.1 2.8 -2.2 3.3 -2.2 18.9 -1.6 14.2 0.6 37.2 -0.3 53 -2.1 5 -0.6 5 -0.7 9 -7.6 4.5 -7.9 14.3 -19.1 18.6 -21.3 4 -2.1 11.7 -1.9 15.5 0.4 1.6 1 6.7 5.9 11.3 10.8 l8.2 9 4.7 -0.9 c11 -2.1 15.8 0.8 24 14.6 6 10 6.5 10.6 9.6 10.6 1.9 0 4 0.8 4.9 1.8 1.9 2.1 2.2 7.3 0.6 8.9 -0.9 0.9 0 2.8 3.5 7.7 3.9 5.5 5.1 6.5 6.9 6 1.5 -0.3 3.3 0.3 5.1 1.7 2.5 2 2.8 2.7 2.2 6.5 -0.5 4 -0.2 4.6 5.2 11.3 5 6.3 6 7.1 8.3 6.6 1.9 -0.4 3.4 0.1 5.5 1.8 2.2 2 2.7 3.1 2.6 6.5 -0.2 3.8 0.2 4.4 6.5 10 5.7 5.2 6.9 5.9 8.9 5.1 5 -1.8 10.1 2.7 9.1 8 -0.5 2.3 0.2 3.2 6 7.4 5.4 3.8 7.4 4.7 10.8 4.7 4.6 0 7.5 2.2 7.5 5.7 0 1.5 2.3 3 9.9 6.7 8.2 3.9 10.5 4.6 13.3 4.1 3 -0.6 4.1 -0.2 7 2.4 2.7 2.4 5.4 3.4 13.1 5 5.5 1.1 11.3 1.7 13.7 1.4 2.8 -0.4 4.6 -0.1 5.8 0.9 0.9 0.9 4.2 2.1 7.2 2.8 9.8 2.2 23.3 6.2 30.5 9 6.8 2.7 7.2 2.7 14 1.4 9.6 -1.8 29.8 -1.8 39.3 0.2 4.2 0.8 11.3 3.1 15.7 5.1 5.5 2.4 10.3 3.8 15.2 4.3 6.2 0.6 7.8 1.2 12.1 4.4 12.2 9.3 20.1 26.3 20.3 43.2 0.1 8.8 -1.5 12.2 -7.9 16.9 -10.4 7.7 -34.9 18.7 -55.2 24.8 -28.9 8.7 -70.2 16.7 -109.1 21.2 -39 4.4 -42.1 4.5 -187.5 4.5 l-139.1 0 -3.3 -2.2z m23 -19.6 c0 -4.7 -0.5 -8.3 -1.2 -9 -0.7 -0.7 -4.2 -1.2 -8.5 -1.2 l-7.3 0 0 9 0 9 8.5 0 8.5 0 0 -7.8z m279 5.8 c29.4 -2.7 33.6 -3.2 34.9 -3.9 1.1 -0.7 0.4 -12.9 -0.8 -15 -0.5 -0.7 -3.3 -0.8 -9.1 -0.1 -28.4 3.1 -47.3 3.5 -167.7 3.5 l-122.3 0 0 8.8 0 8.7 121.8 0 c113.2 0 123.2 -0.1 143.2 -2z m-28 -30 c26.9 -0.9 49.4 -2.3 56.8 -3.6 l3.4 -0.5 -0.7 -8.2 c-0.4 -4.5 -1 -8.5 -1.4 -8.9 -0.4 -0.4 -3.4 -0.3 -6.6 0.2 -24.7 4.1 -30.7 4.2 -153 3.8 -64.9 -0.1 -128.8 -0.3 -142 -0.3 l-24 0 -0.3 8.7 -0.3 8.8 19.3 0.3 c50.5 0.7 223.5 0.5 248.8 -0.3z m157.3 -58.6 c12.4 -3.5 13 -3.9 8.1 -5.4 -3.8 -1.2 -26.4 -2.7 -26.4 -1.8 0 0.5 8.3 9.6 8.8 9.7 0.2 0.1 4.5 -1.1 9.5 -2.5z m-305 -173.5 c5.4 -0.7 9.6 -1.6 9.5 -2 -0.9 -2.2 -9.1 -9.9 -10.7 -9.9 -1.1 0 -4 2.6 -7 6.2 -5.4 6.7 -6.1 8.2 -3.3 7.4 0.9 -0.3 6.1 -1 11.5 -1.7z"/>
  <path d="M151 310 c-4.1 -4.1 -1.2 -12 4.4 -12 3.8 0 6.9 3.2 6.9 7 0 6.1 -7.1 9.2 -11.3 5z"/>
  <path d="M181.2 310.3 c-3.5 -3 -3.8 -6.8 -0.8 -9.7 3 -3.1 6.9 -3.3 9.6 -0.6 6 6 -2.4 15.7 -8.8 10.3z"/>
  <path d="M95.8 272.1 c-29.8 -9.6 -44.5 -42.9 -31.3 -70.9 4.4 -9.4 13.4 -18.9 22.1 -23.4 l6.3 -3.3 2.8 2.1 c2 1.5 2.9 3.1 3.1 5.7 0.3 3.8 0.3 3.8 -9.1 9.9 -13.1 8.4 -19.4 27.2 -14.2 42.7 3.5 10.7 13.8 20.7 24.4 23.8 8.2 2.3 20.2 1.4 27.4 -2.1 14.8 -7.2 23.2 -23.5 20.6 -39.7 -1.9 -11.8 -8.3 -21 -18.8 -26.9 -6.6 -3.7 -8.1 -6.2 -6.5 -10.9 0.5 -1.5 2.1 -3 3.7 -3.6 4.2 -1.4 13.8 3.9 21.6 12 22.6 23.6 18.2 60.8 -9.3 78.7 -3.3 2.1 -8.8 4.7 -12.4 5.8 -8.4 2.6 -22.4 2.6 -30.4 0.1z"/>
  <path d="M93.8 244 c-2.8 -2.9 -3 -3.5 -2.6 -9.1 0.4 -5.7 0.3 -6.2 -3.1 -10.1 -6.7 -7.8 -4.2 -14.9 5.8 -17.2 4.5 -1 5.5 -1.7 8.4 -6.1 5.6 -8.6 11.7 -8.6 17.5 0 3 4.4 4 5.1 8.4 6.1 9.9 2.3 12.3 9.4 5.7 17.2 -3.4 3.9 -3.5 4.4 -3.1 10.1 0.4 5.6 0.2 6.2 -2.6 9.1 -3.6 3.5 -6.3 3.8 -12.6 1 -4.6 -1.9 -4.6 -1.9 -9.2 0 -6.3 2.8 -9 2.5 -12.6 -1z m22.2 -17 c0 -1.4 0.7 -3.4 1.5 -4.4 1.3 -1.8 1.2 -2.1 -1.5 -3.8 -1.7 -1 -3.3 -2.5 -3.6 -3.3 -0.5 -1.2 -1.3 -0.9 -4 1.5 -1.9 1.6 -4 3 -4.5 3 -0.7 0 -0.5 1 0.5 2.5 0.9 1.3 1.6 3.5 1.6 4.7 0 2.1 0.5 2.3 5 2.3 4.7 0 5 -0.2 5 -2.5z"/>
 </g>
</svg>